Coordinates
version=1
nRows=32
nColumns=22
inDegrees=yes

Units are S.I. units (second, meters, Newtons, ...)
If the header above contains a line with 'inDegrees', this indicates whether rotational values are in degrees (yes) or radians (no).

endheader
time	pelvis_tilt	pelvis_list	pelvis_rotation	pelvis_tx	pelvis_ty	pelvis_tz	hip_flexion_r	hip_adduction_r	hip_rotation_r	knee_angle_r	ankle_angle_r	subtalar_angle_r	hip_flexion_l	hip_adduction_l	hip_rotation_l	knee_angle_l	ankle_angle_l	subtalar_angle_l	lumbar_extension	lumbar_bending	lumbar_rotation
      1.28000000	     -4.40165309	     -2.97831801	     -1.36209205	      1.05468887	      0.94161494	     -0.26431770	     15.70787939	      3.79533344	     -1.91660720	    -22.61998346	      9.22619697	     -4.49732699	     14.80740558	     -7.91390761	     -5.96261633	    -23.67158009	      9.62296368	      0.06001849	     -6.76896043	      1.11951303	      1.30187277
      1.29000000	     -4.49399388	     -2.89211725	     -1.15189297	      1.05206501	      0.94143880	     -0.26329638	     16.09516170	      3.74424187	     -2.08310439	    -22.81997653	      9.11327742	     -4.58605206	     15.37276430	     -7.86051602	     -5.58433705	    -24.05380253	      9.34891361	      0.20603408	     -7.02088047	      1.08200115	      1.31662009
      1.30000000	     -4.62307517	     -2.79798396	     -0.88457865	      1.04931158	      0.94123889	     -0.26233539	     16.51120030	      3.66667069	     -2.30435616	    -22.99078934	      8.99486945	     -4.66568786	     15.99608979	     -7.78059107	     -5.14235569	    -24.43026691	      9.06027743	      0.35756731	     -7.24504149	      1.03934060	      1.28788562
      1.31000000	     -4.77873767	     -2.69490070	     -0.56126217	      1.04642965	      0.94101790	     -0.26144173	     16.94727200	      3.55982845	     -2.57738513	    -23.13651333	      8.87373873	     -4.73400910	     16.66327701	     -7.66839891	     -4.63141635	    -24.80299393	      8.77879780	      0.50930966	     -7.45073738	      0.98926980	      1.21166294
      1.32000000	     -4.94962349	     -2.58700225	     -0.19312057	      1.04343836	      0.94078294	     -0.26060677	     17.39220794	      3.42917179	     -2.89582139	    -23.26142927	      8.75267863	     -4.79352443	     17.35449601	     -7.52798599	     -4.05810197	    -25.17584609	      8.52450089	      0.66167639	     -7.64482652	      0.93400242	      1.09770596
      1.33000000	     -5.12961448	     -2.48120653	      0.20592102	      1.04036313	      0.94052756	     -0.25981818	     17.84007212	      3.28512110	     -3.24713134	    -23.36967204	      8.63188538	     -4.85001833	     18.05577628	     -7.36744598	     -3.43052299	    -25.55823171	      8.32913002	      0.82186659	     -7.82785454	      0.87999030	      0.96237339
      1.34000000	     -5.31592517	     -2.38164997	      0.61325571	      1.03723141	      0.94024833	     -0.25905953	     18.28590615	      3.13932442	     -3.59496167	    -23.45875760	      8.49416949	     -4.91183127	     18.75109291	     -7.19378724	     -2.76232250	    -25.95659359	      8.23643989	      1.01393760	     -7.99417440	      0.83028178	      0.83146325
      1.35000000	     -5.46841091	     -2.29048264	      1.03348159	      1.03409137	      0.93999045	     -0.25835086	     18.68801734	      2.98937104	     -3.96758400	    -23.53854044	      8.37124928	     -4.97401808	     19.39376711	     -7.01059330	     -2.06884680	    -26.39221616	      8.26576597	      1.23880184	     -8.18148980	      0.78780226	      0.67324024
      1.36000000	     -5.59063953	     -2.21045247	      1.43617557	      1.03097790	      0.93975106	     -0.25766368	     19.04386838	      2.84892861	     -4.32515366	    -23.59770768	      8.24308790	     -5.04320044	     19.97426583	     -6.83478647	     -1.40252100	    -26.88023102	      8.44033349	      1.52469075	     -8.37681983	      0.75471566	      0.52504797
      1.37000000	     -5.65047115	     -2.15127055	      1.81992644	      1.02793159	      0.93957998	     -0.25700753	     19.31575901	      2.72710251	     -4.68714120	    -23.63461339	      8.13403569	     -5.09887490	     20.45083895	     -6.68316977	     -0.78667465	    -27.43921883	      8.72970703	      1.78357349	     -8.60935977	      0.74323741	      0.37938071
      1.38000000	     -5.71777620	     -2.11058110	      2.12490834	      1.02492930	      0.93936641	     -0.25627728	     19.59066763	      2.64998168	     -4.94555299	    -23.65796250	      7.97160262	     -5.18430551	     20.88764701	     -6.58205639	     -0.30405166	    -28.09800911	      9.22716870	      2.20440508	     -8.79215182	      0.73986903	      0.30136777
      1.39000000	     -5.71289549	     -2.12090562	      2.39098546	      1.02202674	      0.93923078	     -0.25551698	     19.76575294	      2.63324348	     -5.21266308	    -23.64608776	      7.84540182	     -5.23440952	     21.20684588	     -6.56450946	      0.06062704	    -28.88000868	      9.77867226	      2.44709063	     -9.01070027	      0.78629293	      0.23333355
      1.40000000	     -5.70210163	     -2.14739978	      2.55676875	      1.01917078	      0.93908215	     -0.25463859	     19.93395259	      2.66539603	     -5.37876449	    -23.62336759	      7.68169195	     -5.28687739	     21.45572175	     -6.62113102	      0.22426301	    -29.78602048	     10.43210643	      2.71150825	     -9.19212188	      0.83354340	      0.23208332
      1.41000000	     -5.66364372	     -2.18932280	      2.63428524	      1.01637773	      0.93895942	     -0.25364040	     20.06797506	      2.74095252	     -5.47848279	    -23.58860376	      7.50621337	     -5.32342436	     21.60222042	     -6.75285556	      0.19942793	    -30.81055169	     11.09936409	      2.86636173	     -9.35688880	      0.87866000	      0.27686217
      1.42000000	     -5.61760555	     -2.25794782	      2.63411701	      1.01359948	      0.93883288	     -0.25252491	     20.19072277	      2.86798951	     -5.53399428	    -23.53702326	      7.31665086	     -5.34171131	     21.67132464	     -6.96631550	      0.02098851	    -31.95414852	     11.75000535	      2.92291558	     -9.48980438	      0.93239345	      0.35477119
      1.43000000	     -5.56532948	     -2.34615547	      2.56058653	      1.01082080	      0.93870218	     -0.25132499	     20.30607099	      3.03423098	     -5.54715474	    -23.47352111	      7.11591595	     -5.33590543	     21.65823231	     -7.24553996	     -0.27401544	    -33.20395225	     12.34308767	      2.87567794	     -9.59107180	      0.99293106	      0.46010826
      1.44000000	     -5.51495911	     -2.45821292	      2.42535979	      1.00801482	      0.93855943	     -0.25005613	     20.42297675	      3.24290632	     -5.51744028	    -23.39875623	      6.89759533	     -5.30314804	     21.57112661	     -7.58103963	     -0.63521796	    -34.53891509	     12.85344905	      2.74835709	     -9.65663253	      1.06656268	      0.58047756
      1.45000000	     -5.46257168	     -2.58222849	      2.24906266	      1.00517593	      0.93841178	     -0.24876610	     20.53970135	      3.47054431	     -5.47943356	    -23.32008943	      6.67792494	     -5.24752112	     21.40168335	     -7.94285661	     -1.01816257	    -35.92831573	     13.26663424	      2.55842536	     -9.69465041	      1.14278859	      0.70698742
      1.46000000	     -5.42939299	     -2.73145201	      2.04228223	      1.00222167	      0.93822713	     -0.24744868	     20.68135187	      3.74255449	     -5.35235980	    -23.23484064	      6.41011806	     -5.14486148	     21.18819729	     -8.32017503	     -1.34212583	    -37.35861284	     13.54798714	      2.31732435	     -9.69643641	      1.23620706	      0.80384869
      1.47000000	     -5.39820564	     -2.87630476	      1.83383172	      0.99920556	      0.93802271	     -0.24621948	     20.83455971	      3.99660309	     -5.26078023	    -23.16294745	      6.15606708	     -5.01613136	     20.90429943	     -8.66426909	     -1.60443973	    -38.78971129	     13.72358894	      2.06057821	     -9.67695231	      1.32732449	      0.87180389
      1.48000000	     -5.37796437	     -3.01766045	      1.63456620	      0.99608203	      0.93778407	     -0.24510478	     21.00939933	      4.23328374	     -5.18352704	    -23.10109862	      5.90006112	     -4.85439047	     20.57009196	     -8.95626032	     -1.76306967	    -40.19859703	     13.79365696	      1.81352785	     -9.63642975	      1.42028376	      0.89373223
      1.49000000	     -5.35116657	     -3.14425012	      1.45051167	      0.99286828	      0.93752989	     -0.24412894	     21.19488280	      4.43408672	     -5.16498577	    -23.06546848	      5.65948824	     -4.73393730	     20.16810379	     -9.18471757	     -1.84562506	    -41.55951083	     13.76191240	      1.67947210	     -9.59701035	      1.50444924	      0.88333071
      1.50000000	     -5.35791052	     -3.26835292	      1.31053629	      0.98949220	      0.93718957	     -0.24334023	     21.42720225	      4.61281940	     -5.13345677	    -23.03649139	      5.40601683	     -4.50329269	     19.75962557	     -9.32667793	     -1.75999937	    -42.85567117	     13.69871623	      1.53833117	     -9.51946090	      1.59897463	      0.78475608
      1.51000000	     -5.34476556	     -3.35465559	      1.17953664	      0.98601914	      0.93686716	     -0.24270606	     21.65798182	      4.73204618	     -5.15585344	    -23.03497237	      5.15727235	     -4.37002875	     19.26464526	     -9.38249423	     -1.64019969	    -44.04409435	     13.51235585	      1.56043894	     -9.46575155	      1.65808520	      0.68066108
      1.52000000	     -5.36036459	     -3.45023540	      1.11303345	      0.98239934	      0.93644478	     -0.24233972	     21.93418160	      4.82430539	     -5.22151706	    -23.04798635	      4.93785479	     -4.10442813	     18.77504941	     -9.36523057	     -1.37740230	    -45.14070277	     13.39822769	      1.69520885	     -9.37734657	      1.75429223	      0.48691956
      1.53000000	     -5.35805814	     -3.48963036	      1.03555673	      0.97867518	      0.93605181	     -0.24210760	     22.20951325	      4.85478445	     -5.25656330	    -23.08253910	      4.68723436	     -3.96622780	     18.19237383	     -9.25142006	     -1.12651273	    -46.07975200	     13.16566810	      1.87789061	     -9.31301919	      1.78980315	      0.31755732
      1.54000000	     -5.36947666	     -3.55870900	      1.03465672	      0.97482161	      0.93555396	     -0.24213965	     22.52592349	      4.87143643	     -5.37652160	    -23.15497716	      4.52337796	     -3.65610032	     17.61469736	     -9.10564938	     -0.76066303	    -46.91375904	     13.08013790	      2.34787739	     -9.22879282	      1.88308957	      0.05873160
      1.55000000	     -5.37039300	     -3.59143712	      1.02049882	      0.97086611	      0.93505710	     -0.24228261	     22.84819373	      4.85297456	     -5.43850409	    -23.24480532	      4.32649565	     -3.41702279	     16.96453070	     -8.90186534	     -0.43098187	    -47.58121946	     12.93323065	      2.82262074	     -9.15654452	      1.93610789	     -0.16818094
      1.56000000	     -5.36913884	     -3.62622878	      1.02551805	      0.96680373	      0.93451040	     -0.24259708	     23.18900701	      4.82162609	     -5.49495468	    -23.35965062	      4.13195997	     -3.18893226	     16.27773114	     -8.67488407	     -0.09436840	    -48.10264079	     12.82553766	      3.37428691	     -9.08228674	      2.00418815	     -0.39863308
      1.57000000	     -5.36580857	     -3.66283744	      1.03905549	      0.96264741	      0.93391332	     -0.24302826	     23.54985498	      4.78467898	     -5.53471303	    -23.50170027	      3.93288675	     -2.96023843	     15.54913629	     -8.43700082	      0.23502075	    -48.46619900	     12.75940181	      4.00666444	     -9.00315318	      2.07635818	     -0.62579158
      1.58000000	     -5.36198037	     -3.70603977	      1.05681703	      0.95837882	      0.93325557	     -0.24357874	     23.93336375	      4.74699734	     -5.56127972	    -23.67015372	      3.71698436	     -2.74342633	     14.79365582	     -8.20163044	      0.54049921	    -48.68411449	     12.72860251	      4.66673462	     -8.91964431	      2.16129809	     -0.83693055
      1.59000000	     -5.34395337	     -3.73389496	      1.11200297	      0.95399745	      0.93255165	     -0.24427566	     24.33441822	      4.67053907	     -5.62025987	    -23.88750670	      3.56173757	     -2.59181436	     14.00358538	     -7.93339287	      0.87282415	    -48.75000075	     12.64901201	      5.26920154	     -8.84754348	      2.22954458	     -1.07499292
